/* XPM */
static char * pymca_xpm[] = {
"32 32 994 2",
"  	c #959983",
". 	c #80816A",
"+ 	c #746C55",
"@ 	c #5A5146",
"# 	c #524E49",
"$ 	c #71604F",
"% 	c #9B7D5D",
"& 	c #AF8B63",
"* 	c #C29A6D",
"= 	c #C19769",
"- 	c #C89C6C",
"; 	c #C79B6D",
"> 	c #C89A6B",
", 	c #C99C6C",
"' 	c #CB9F6E",
") 	c #C9A06F",
"! 	c #C49C6B",
"~ 	c #C79D70",
"{ 	c #B99165",
"] 	c #AA865B",
"^ 	c #A6855B",
"/ 	c #A07E55",
"( 	c #9C7B57",
"_ 	c #937551",
": 	c #8D704F",
"< 	c #866C4D",
"[ 	c #7D644A",
"} 	c #76614A",
"| 	c #6B5948",
"1 	c #5C5045",
"2 	c #4D4842",
"3 	c #484744",
"4 	c #878B71",
"5 	c #756F58",
"6 	c #5F5548",
"7 	c #524E47",
"8 	c #59534C",
"9 	c #7F6C55",
"0 	c #9B7F5D",
"a 	c #B3926A",
"b 	c #B89466",
"c 	c #BF9868",
"d 	c #C79E6F",
"e 	c #C99E6D",
"f 	c #CDA16C",
"g 	c #C89C6A",
"h 	c #C89E6E",
"i 	c #CAA474",
"j 	c #C29C6C",
"k 	c #C29D6B",
"l 	c #C19C6A",
"m 	c #B28F62",
"n 	c #A7865D",
"o 	c #A9885E",
"p 	c #A6835A",
"q 	c #A18059",
"r 	c #9D7C57",
"s 	c #8D7152",
"t 	c #826A4E",
"u 	c #72604A",
"v 	c #5D5246",
"w 	c #504C43",
"x 	c #474743",
"y 	c #78775C",
"z 	c #655C4A",
"A 	c #5B524A",
"B 	c #4F4E4A",
"C 	c #6A5E50",
"D 	c #927756",
"E 	c #A48763",
"F 	c #BA9A74",
"G 	c #BE9C71",
"H 	c #BF9A6B",
"I 	c #C49E70",
"J 	c #CDA575",
"K 	c #CCA370",
"L 	c #CAA371",
"M 	c #CFA676",
"N 	c #C7A06F",
"O 	c #CAA475",
"P 	c #C09C69",
"Q 	c #B99666",
"R 	c #B59467",
"S 	c #B18F65",
"T 	c #AE8D61",
"U 	c #AB8A61",
"V 	c #A5865F",
"W 	c #A5845D",
"X 	c #9D7E59",
"Y 	c #8F7554",
"Z 	c #826D51",
"` 	c #71614B",
" .	c #5D5447",
"..	c #514E46",
"+.	c #4A4A46",
"@.	c #726E57",
"#.	c #595147",
"$.	c #554F49",
"%.	c #4D4E4A",
"&.	c #786955",
"*.	c #9C805D",
"=.	c #AA8B64",
"-.	c #B49469",
";.	c #C8A578",
">.	c #C6A274",
",.	c #C5A072",
"'.	c #C79F70",
").	c #C9A272",
"!.	c #C9A370",
"~.	c #CDA573",
"{.	c #C69F6C",
"].	c #BC9564",
"^.	c #B39062",
"/.	c #AD8B61",
"(.	c #AF8E63",
"_.	c #A8885E",
":.	c #A98960",
"<.	c #A0835C",
"[.	c #9C7F5C",
"}.	c #927A59",
"|.	c #867153",
"1.	c #7B6A50",
"2.	c #6B5D4B",
"3.	c #585148",
"4.	c #4F4D47",
"5.	c #4A4B46",
"6.	c #686453",
"7.	c #57534C",
"8.	c #52504C",
"9.	c #4E4F4B",
"0.	c #827159",
"a.	c #A28764",
"b.	c #B0926B",
"c.	c #B79569",
"d.	c #B69266",
"e.	c #BB9869",
"f.	c #C39D6D",
"g.	c #C5A071",
"h.	c #C39B68",
"i.	c #C8A16D",
"j.	c #C79E6C",
"k.	c #B48F61",
"l.	c #9E805C",
"m.	c #917657",
"n.	c #937757",
"o.	c #967B5A",
"p.	c #987D5A",
"q.	c #997E59",
"r.	c #977C59",
"s.	c #90795A",
"t.	c #887355",
"u.	c #7F6D53",
"v.	c #776751",
"w.	c #6F634F",
"x.	c #665C4C",
"y.	c #595448",
"z.	c #505049",
"A.	c #4A4B47",
"B.	c #636151",
"C.	c #53524D",
"D.	c #51524F",
"E.	c #565652",
"F.	c #877560",
"G.	c #A48764",
"H.	c #A48662",
"I.	c #9C815E",
"J.	c #92795A",
"K.	c #967C5D",
"L.	c #B18C5F",
"M.	c #C09968",
"N.	c #BA9563",
"O.	c #BD9768",
"P.	c #AC895E",
"Q.	c #866F53",
"R.	c #726452",
"S.	c #726451",
"T.	c #73644F",
"U.	c #7A6953",
"V.	c #776855",
"W.	c #726553",
"X.	c #706450",
"Y.	c #6D614E",
"Z.	c #675D4D",
"`.	c #665D4F",
" +	c #675E4E",
".+	c #655B4D",
"++	c #5D564C",
"@+	c #53524C",
"#+	c #4D4D4A",
"$+	c #5E5E52",
"%+	c #585752",
"&+	c #585855",
"*+	c #575752",
"=+	c #776B57",
"-+	c #83705A",
";+	c #7D6E59",
">+	c #7E6C58",
",+	c #7D6C56",
"'+	c #766654",
")+	c #877258",
"!+	c #B59063",
"~+	c #B39063",
"{+	c #897559",
"]+	c #685F51",
"^+	c #645D52",
"/+	c #736353",
"(+	c #8E7355",
"_+	c #9A7B5B",
":+	c #7B6B55",
"<+	c #675E54",
"[+	c #54534C",
"}+	c #595854",
"|+	c #585750",
"1+	c #5E5A51",
"2+	c #696051",
"3+	c #6B5F50",
"4+	c #5F5A4D",
"5+	c #55544D",
"6+	c #625F55",
"7+	c #5F5A54",
"8+	c #585754",
"9+	c #5E5D59",
"0+	c #625F56",
"a+	c #676055",
"b+	c #816F5B",
"c+	c #7E6D5B",
"d+	c #746A5C",
"e+	c #796854",
"f+	c #7A6955",
"g+	c #A68761",
"h+	c #BB9768",
"i+	c #9F835E",
"j+	c #746754",
"k+	c #676157",
"l+	c #6E6254",
"m+	c #846F56",
"n+	c #876E55",
"o+	c #645B4F",
"p+	c #585650",
"q+	c #605C54",
"r+	c #5E5B56",
"s+	c #5C5A55",
"t+	c #635F56",
"u+	c #7B6D59",
"v+	c #756755",
"w+	c #635C50",
"x+	c #595750",
"y+	c #535351",
"z+	c #5C5A54",
"A+	c #5A5954",
"B+	c #575957",
"C+	c #666058",
"D+	c #6C6459",
"E+	c #665F56",
"F+	c #86725D",
"G+	c #6F6256",
"H+	c #5A5652",
"I+	c #685C52",
"J+	c #89735B",
"K+	c #AA8862",
"L+	c #C29C6A",
"M+	c #947C60",
"N+	c #6D6659",
"O+	c #75685A",
"P+	c #8C765B",
"Q+	c #AE8B65",
"R+	c #B48E62",
"S+	c #836D57",
"T+	c #726253",
"U+	c #746859",
"V+	c #766B58",
"W+	c #7A6B58",
"X+	c #8E775C",
"Y+	c #9E815F",
"Z+	c #9D8463",
"`+	c #907B5F",
" @	c #676053",
".@	c #595850",
"+@	c #535552",
"@@	c #5E5954",
"#@	c #585956",
"$@	c #535756",
"%@	c #867766",
"&@	c #957E64",
"*@	c #968065",
"=@	c #AD8E6B",
"-@	c #9D8264",
";@	c #8E755A",
">@	c #90785C",
",@	c #9B8163",
"'@	c #B7966D",
")@	c #C3A172",
"!@	c #907D67",
"~@	c #786E63",
"{@	c #7D6F5D",
"]@	c #977D5E",
"^@	c #AD8C65",
"/@	c #AF8D65",
"(@	c #AD8D68",
"_@	c #9D815F",
":@	c #8E7A60",
"<@	c #84735C",
"[@	c #937B62",
"}@	c #AB8D6A",
"|@	c #AF8F68",
"1@	c #A48867",
"2@	c #907C62",
"3@	c #7A6C5B",
"4@	c #676156",
"5@	c #595A55",
"6@	c #535553",
"7@	c #605C59",
"8@	c #5B5E5C",
"9@	c #5A5B5A",
"0@	c #988064",
"a@	c #AA8D6B",
"b@	c #A48B6B",
"c@	c #9A8164",
"d@	c #89755D",
"e@	c #887662",
"f@	c #A28867",
"g@	c #AB8E68",
"h@	c #C19F71",
"i@	c #BA9A6F",
"j@	c #8F7D68",
"k@	c #817566",
"l@	c #8D7C66",
"m@	c #A48A6C",
"n@	c #A98C68",
"o@	c #A58967",
"p@	c #9D8567",
"q@	c #988265",
"r@	c #9A8468",
"s@	c #A98D6A",
"t@	c #AF8F67",
"u@	c #B6956C",
"v@	c #B09069",
"w@	c #A08464",
"x@	c #8C7960",
"y@	c #776C5A",
"z@	c #64615A",
"A@	c #545451",
"B@	c #525352",
"C@	c #5E5D5C",
"D@	c #565959",
"E@	c #66625C",
"F@	c #A88966",
"G@	c #C19E75",
"H@	c #C3A377",
"I@	c #C0A176",
"J@	c #B6986F",
"K@	c #BD9C72",
"L@	c #BB9B6E",
"M@	c #B99A73",
"N@	c #C5A479",
"O@	c #B89A74",
"P@	c #907E68",
"Q@	c #907F6D",
"R@	c #A1896D",
"S@	c #B89870",
"T@	c #C8A374",
"U@	c #C8A475",
"V@	c #D1AB7A",
"W@	c #D4AC7B",
"X@	c #CAA275",
"Y@	c #C8A074",
"Z@	c #BE996D",
"`@	c #B08E66",
" #	c #A58662",
".#	c #987E64",
"+#	c #82725D",
"@#	c #70695D",
"##	c #61605B",
"$#	c #565655",
"%#	c #565757",
"&#	c #5D605F",
"*#	c #555A5A",
"=#	c #6E6760",
"-#	c #AB8C6A",
";#	c #BD9B74",
">#	c #C3A177",
",#	c #C5A379",
"'#	c #C09E71",
")#	c #C4A276",
"!#	c #BC9D74",
"~#	c #BF9F78",
"{#	c #C7A67A",
"]#	c #AC9270",
"^#	c #99856C",
"/#	c #958169",
"(#	c #A18669",
"_#	c #BF9B71",
":#	c #D0A674",
"<#	c #D0A77A",
"[#	c #D3AA7C",
"}#	c #D5AA7B",
"|#	c #D1A679",
"1#	c #CAA074",
"2#	c #BB946C",
"3#	c #A98A68",
"4#	c #9B8369",
"5#	c #8C7A66",
"6#	c #7A6E60",
"7#	c #6E6A63",
"8#	c #60605C",
"9#	c #5D5F5E",
"0#	c #555657",
"a#	c #606260",
"b#	c #545757",
"c#	c #736C62",
"d#	c #A78A6A",
"e#	c #B3936E",
"f#	c #C09D74",
"g#	c #CCA981",
"h#	c #C7A57A",
"i#	c #C4A47A",
"j#	c #B79975",
"k#	c #C09E76",
"l#	c #CAA87D",
"m#	c #AA9273",
"n#	c #97846B",
"o#	c #9F8A6E",
"p#	c #A98C6E",
"q#	c #BE9B71",
"r#	c #CAA177",
"s#	c #CCA175",
"t#	c #CEA479",
"u#	c #CFA479",
"v#	c #CCA177",
"w#	c #C49B72",
"x#	c #B28F6D",
"y#	c #A2876B",
"z#	c #917D69",
"A#	c #817465",
"B#	c #746B61",
"C#	c #66645F",
"D#	c #5B5C5A",
"E#	c #595C5C",
"F#	c #5A5D5D",
"G#	c #666665",
"H#	c #5E6263",
"I#	c #716D65",
"J#	c #A7896E",
"K#	c #BE9B75",
"L#	c #C7A077",
"M#	c #C6A27C",
"N#	c #C1A076",
"O#	c #BFA27C",
"P#	c #BB9F7B",
"Q#	c #CAAA83",
"R#	c #C3A379",
"S#	c #A89173",
"T#	c #9D8971",
"U#	c #A98E71",
"V#	c #BC9A74",
"W#	c #C59F77",
"X#	c #CBA37B",
"Y#	c #CDA47C",
"Z#	c #CAA17A",
"`#	c #C29C77",
" $	c #B89571",
".$	c #A88B6D",
"+$	c #95816C",
"@$	c #877969",
"#$	c #7D7469",
"$$	c #716B63",
"%$	c #676662",
"&$	c #5D5D5D",
"*$	c #585A5B",
"=$	c #595B5C",
"-$	c #5F5F60",
";$	c #555A5D",
">$	c #726C67",
",$	c #A2866C",
"'$	c #C09D77",
")$	c #C4A47D",
"!$	c #C0A078",
"~$	c #B59977",
"{$	c #B89C7B",
"]$	c #CBAB84",
"^$	c #BB9E7A",
"/$	c #A28C71",
"($	c #93836C",
"_$	c #90806D",
":$	c #A68D74",
"<$	c #B89875",
"[$	c #BA9671",
"}$	c #C29D79",
"|$	c #C09B75",
"1$	c #BC9974",
"2$	c #B69672",
"3$	c #AD8F72",
"4$	c #9E876F",
"5$	c #8D7B6A",
"6$	c #7C7163",
"7$	c #787167",
"8$	c #706C67",
"9$	c #686765",
"0$	c #626365",
"a$	c #58595A",
"b$	c #5B5C5F",
"c$	c #5C5F62",
"d$	c #62676A",
"e$	c #736E68",
"f$	c #9D8672",
"g$	c #B69575",
"h$	c #C2A180",
"i$	c #C0A07C",
"j$	c #B99C79",
"k$	c #AA9174",
"l$	c #BB9D7C",
"m$	c #CAAA84",
"n$	c #B69B7B",
"o$	c #A28D77",
"p$	c #9B8975",
"q$	c #938370",
"r$	c #A88E76",
"s$	c #B99672",
"t$	c #C4A07D",
"u$	c #C09D7B",
"v$	c #BE9C7A",
"w$	c #B59676",
"x$	c #AF9277",
"y$	c #A28971",
"z$	c #8F7D6B",
"A$	c #84776A",
"B$	c #747069",
"C$	c #6B6A67",
"D$	c #626362",
"E$	c #5F6062",
"F$	c #5B5D5E",
"G$	c #616265",
"H$	c #626768",
"I$	c #595F62",
"J$	c #706E6A",
"K$	c #938071",
"L$	c #AD9279",
"M$	c #B89A7D",
"N$	c #B99B7C",
"O$	c #B59A7E",
"P$	c #A08A74",
"Q$	c #BEA07F",
"R$	c #C1A27F",
"S$	c #A18D75",
"T$	c #8A7D72",
"U$	c #877C70",
"V$	c #847A70",
"W$	c #998571",
"X$	c #C3A17E",
"Y$	c #BE9C79",
"Z$	c #C09E7C",
"`$	c #B69776",
" %	c #B0967A",
".%	c #A48D75",
"+%	c #94826F",
"@%	c #897D70",
"#%	c #7C746C",
"$%	c #716B65",
"%%	c #6D6A66",
"&%	c #6A6968",
"*%	c #5F6160",
"=%	c #5D5E5F",
"-%	c #5B5F60",
";%	c #626667",
">%	c #5E6366",
",%	c #61676A",
"'%	c #6C6D6A",
")%	c #8C7D72",
"!%	c #A38C78",
"~%	c #AE947B",
"{%	c #B3987D",
"]%	c #BB9E7F",
"^%	c #A5927D",
"/%	c #9B8978",
"(%	c #968574",
"_%	c #7A7670",
":%	c #6B6C6D",
"<%	c #6D6D6D",
"[%	c #6F6D6A",
"}%	c #9B8876",
"|%	c #C1A181",
"1%	c #C19F7D",
"2%	c #B99B7F",
"3%	c #B0957A",
"4%	c #A59078",
"5%	c #978675",
"6%	c #8E8275",
"7%	c #80776E",
"8%	c #7C7873",
"9%	c #74726C",
"0%	c #777371",
"a%	c #696968",
"b%	c #686A6A",
"c%	c #5E6063",
"d%	c #5F6466",
"e%	c #606568",
"f%	c #5E6468",
"g%	c #606669",
"h%	c #6C6D6D",
"i%	c #8B8279",
"j%	c #98897B",
"k%	c #A08C7A",
"l%	c #B2967C",
"m%	c #C3A37E",
"n%	c #CAA984",
"o%	c #A3927F",
"p%	c #73726F",
"q%	c #6C6E6E",
"r%	c #6D7073",
"s%	c #717271",
"t%	c #78736F",
"u%	c #A18E7A",
"v%	c #B3987C",
"w%	c #B2977C",
"x%	c #AC957F",
"y%	c #A5917E",
"z%	c #9E8D7B",
"A%	c #8E8175",
"B%	c #8A8179",
"C%	c #5F769C",
"D%	c #4270B9",
"E%	c #4572B9",
"F%	c #406EB4",
"G%	c #4574B8",
"H%	c #2C67C8",
"I%	c #2C68CB",
"J%	c #2865C8",
"K%	c #2562C5",
"L%	c #63696D",
"M%	c #5F6569",
"N%	c #6D7172",
"O%	c #8C827A",
"P%	c #978A7F",
"Q%	c #9A887A",
"R%	c #A9927E",
"S%	c #BDA084",
"T%	c #C1A586",
"U%	c #BD9F82",
"V%	c #8F847A",
"W%	c #7C7A77",
"X%	c #807E7B",
"Y%	c #86817D",
"Z%	c #948980",
"`%	c #9F8E7F",
" &	c #A0907E",
".&	c #9B8A79",
"+&	c #9C8B7B",
"@&	c #9E8E7E",
"#&	c #9A8B7C",
"$&	c #8E8378",
"%&	c #867F76",
"&&	c #C1C5D2",
"*&	c #CED3DE",
"=&	c #8A92B4",
"-&	c #7A82A3",
";&	c #9DA4C6",
">&	c #D0D7E3",
",&	c #C5CAD6",
"'&	c #D5DCE8",
")&	c #C8CED9",
"!&	c #656C70",
"~&	c #5F686D",
"{&	c #6C7174",
"]&	c #8F847D",
"^&	c #9F9084",
"/&	c #9D9084",
"(&	c #988B7E",
"_&	c #A79484",
":&	c #BCA084",
"<&	c #BC9D82",
"[&	c #A7927E",
"}&	c #96897F",
"|&	c #8C847F",
"1&	c #918881",
"2&	c #958C84",
"3&	c #8E867F",
"4&	c #86817A",
"5&	c #8E847D",
"6&	c #9F9083",
"7&	c #A29182",
"8&	c #9F9183",
"9&	c #93897F",
"0&	c #8E8780",
"a&	c #CAC9CD",
"b&	c #EEE8E5",
"c&	c #DFE0E6",
"d&	c #DADBE0",
"e&	c #DEE1E9",
"f&	c #E9EAED",
"g&	c #E5E2E5",
"h&	c #EEEDF1",
"i&	c #E7E5E8",
"j&	c #6A7177",
"k&	c #656E74",
"l&	c #6D7378",
"m&	c #918A84",
"n&	c #A29287",
"o&	c #A59489",
"p&	c #9A938C",
"q&	c #8B8580",
"r&	c #948882",
"s&	c #9A8981",
"t&	c #95837B",
"u&	c #87817F",
"v&	c #817F7D",
"w&	c #807E7D",
"x&	c #7B7A7A",
"y&	c #767576",
"z&	c #A89786",
"A&	c #A39485",
"B&	c #9F9186",
"C&	c #938A82",
"D&	c #8D8781",
"E&	c #C7CAD3",
"F&	c #E4E6E8",
"G&	c #C6C8CB",
"H&	c #D9DADB",
"I&	c #CBCCCC",
"J&	c #D7D7D6",
"K&	c #D8D8D7",
"L&	c #D6D6D6",
"M&	c #D1D2D1",
"N&	c #6D757C",
"O&	c #68737A",
"P&	c #687078",
"Q&	c #898787",
"R&	c #A1928A",
"S&	c #AC9B8E",
"T&	c #B09E8D",
"U&	c #C3AB95",
"V&	c #BDA38E",
"W&	c #BEA08A",
"X&	c #AE9482",
"Y&	c #A89489",
"Z&	c #938781",
"`&	c #8C8684",
" *	c #8D8785",
".*	c #998D85",
"+*	c #A49689",
"@*	c #A69687",
"#*	c #AA9C8E",
"$*	c #A7998B",
"%*	c #9A9188",
"&*	c #918C86",
"**	c #8C8885",
"=*	c #C9C9D4",
"-*	c #E8E7ED",
";*	c #E0E0E7",
">*	c #EAEAED",
",*	c #ECEBED",
"'*	c #FEFCFE",
")*	c #F9F7F9",
"!*	c #FAF9FA",
"~*	c #6D767D",
"{*	c #6B7880",
"]*	c #6D7A82",
"^*	c #7F8287",
"/*	c #958E8A",
"(*	c #A89A91",
"_*	c #B2A08F",
":*	c #BEA792",
"<*	c #B4A191",
"[*	c #AB978A",
"}*	c #9F8D83",
"|*	c #9C8D85",
"1*	c #978D89",
"2*	c #8F8987",
"3*	c #958F8A",
"4*	c #A2978E",
"5*	c #A3978D",
"6*	c #A59A90",
"7*	c #A1968C",
"8*	c #979089",
"9*	c #8F8C88",
"0*	c #878684",
"a*	c #D1D3DE",
"b*	c #F5F1F4",
"c*	c #E8E6E8",
"d*	c #EFEFEF",
"e*	c #EFEFF0",
"f*	c #E8E8E9",
"g*	c #E6E6E7",
"h*	c #727A82",
"i*	c #6B7780",
"j*	c #6D7A81",
"k*	c #717B83",
"l*	c #838487",
"m*	c #9A928E",
"n*	c #AC9E95",
"o*	c #B6A594",
"p*	c #B3A494",
"q*	c #9F958D",
"r*	c #918B8A",
"s*	c #8E8C8C",
"t*	c #8F8C8C",
"u*	c #908B88",
"v*	c #94908B",
"w*	c #97928C",
"x*	c #97918A",
"y*	c #9C958E",
"z*	c #9F9792",
"A*	c #97918D",
"B*	c #92918D",
"C*	c #8A8988",
"D*	c #828183",
"E*	c #CFD2DC",
"F*	c #EEECED",
"G*	c #DFDDDF",
"H*	c #EBEBEB",
"I*	c #E1E2E1",
"J*	c #EBEBEA",
"K*	c #D5CACA",
"L*	c #E2D8D6",
"M*	c #727C84",
"N*	c #737D86",
"O*	c #707C84",
"P*	c #6F7A82",
"Q*	c #777F87",
"R*	c #8E8D8F",
"S*	c #A49993",
"T*	c #B4A69A",
"U*	c #BFAA98",
"V*	c #C2AB97",
"W*	c #B9A595",
"X*	c #B4A49A",
"Y*	c #AA9F98",
"Z*	c #A09790",
"`*	c #9A948D",
" =	c #9A9590",
".=	c #9B9792",
"+=	c #9D9894",
"@=	c #979390",
"#=	c #92918F",
"$=	c #8A898A",
"%=	c #858688",
"&=	c #7F8285",
"*=	c #B7BAC3",
"==	c #FCF8F7",
"-=	c #EFEDEC",
";=	c #EEDFDD",
">=	c #DABCBC",
",=	c #C5A9A3",
"'=	c #CDC4BB",
")=	c #CCB0A7",
"!=	c #E5D3D0",
"~=	c #737C85",
"{=	c #778089",
"]=	c #737F88",
"^=	c #6F7B84",
"/=	c #707E87",
"(=	c #81878F",
"_=	c #989394",
":=	c #B4A59C",
"<=	c #C7AF9D",
"[=	c #CFB39E",
"}=	c #D2B6A1",
"|=	c #CAB39F",
"1=	c #B7A79A",
"2=	c #ACA197",
"3=	c #A29994",
"4=	c #9C9895",
"5=	c #9C9A99",
"6=	c #8E8D8E",
"7=	c #8E8F90",
"8=	c #87888B",
"9=	c #818388",
"0=	c #86898E",
"a=	c #C6CAD5",
"b=	c #F7F7F7",
"c=	c #EEEEEE",
"d=	c #ECEEE6",
"e=	c #E2EADF",
"f=	c #E5EAE4",
"g=	c #F8FEF8",
"h=	c #EEF3ED",
"i=	c #E4E9DC",
"j=	c #797F89",
"k=	c #7F858E",
"l=	c #76808B",
"m=	c #728089",
"n=	c #7C8992",
"o=	c #7E8A94",
"p=	c #898C94",
"q=	c #A69B97",
"r=	c #C4AF9F",
"s=	c #CBB29E",
"t=	c #CCB3A1",
"u=	c #C1AD9E",
"v=	c #B2A49B",
"w=	c #AAA19C",
"x=	c #A5A09D",
"y=	c #9D9998",
"z=	c #969495",
"A=	c #919194",
"B=	c #929296",
"C=	c #8C8E93",
"D=	c #888B92",
"E=	c #888B8F",
"F=	c #83868B",
"G=	c #CBCEDA",
"H=	c #E9E9E9",
"I=	c #FDFDFD",
"J=	c #F5F5F5",
"K=	c #FEFEFE",
"L=	c #F4F4F4",
"M=	c #FEFEFD",
"N=	c #79808A",
"O=	c #7F8590",
"P=	c #77828C",
"Q=	c #788490",
"R=	c #818E98",
"S=	c #808D97",
"T=	c #76808A",
"U=	c #909096",
"V=	c #B2A4A1",
"W=	c #B5A397",
"X=	c #B9A9A0",
"Y=	c #B3A6A0",
"Z=	c #A9A09E",
"`=	c #A29E9C",
" -	c #9A9798",
".-	c #909196",
"+-	c #8E8F95",
"@-	c #81858B",
"#-	c #8C9096",
"$-	c #85898F",
"%-	c #8B8F95",
"&-	c #CCCFD8",
"*-	c #F7F5F1",
"=-	c #F0EDE9",
"--	c #F8F6F2",
";-	c #EDEBE6",
">-	c #F8F6F1",
",-	c #ECEBE6",
"'-	c #7C8690",
")-	c #78838F",
"!-	c #7B8791",
"~-	c #7D8A95",
"{-	c #7B8793",
"]-	c #838F9B",
"^-	c #818890",
"/-	c #909095",
"(-	c #9D9493",
"_-	c #A09A9B",
":-	c #9E999A",
"<-	c #989699",
"[-	c #949398",
"}-	c #8D8F95",
"|-	c #8A8E95",
"1-	c #898D95",
"2-	c #85898E",
"3-	c #858A90",
"4-	c #878B95",
"5-	c #898D96",
"6-	c #888C95",
"7-	c #CACCD5",
"8-	c #F8F3EF",
"9-	c #F6F4F0",
"0-	c #E4E6E6",
"a-	c #EFF2F4",
"b-	c #E1E1E2",
"c-	c #D7DBDD",
"d-	c #E6EBEA",
"e-	c #7F8996",
"f-	c #7D8894",
"g-	c #788390",
"h-	c #788491",
"i-	c #7B8994",
"j-	c #84919F",
"k-	c #84929E",
"l-	c #808C97",
"m-	c #77808A",
"n-	c #858891",
"o-	c #8C8E98",
"p-	c #8D9098",
"q-	c #898C96",
"r-	c #8D909A",
"s-	c #8B8E99",
"t-	c #898F99",
"u-	c #8E919B",
"v-	c #878B94",
"w-	c #868A93",
"x-	c #888C98",
"y-	c #888E99",
"z-	c #7F8691",
"A-	c #C3CAD6",
"B-	c #E3E5E7",
"C-	c #EEF0F2",
"D-	c #EBEDEF",
"E-	c #E5ECF1",
"F-	c #E2EBF1",
"G-	c #DCE2E9",
"H-	c #DEE4EB",
"I-	c #D8DFE5",
"  . + @ # $ % & * = - ; > , ' ) ! ~ { ] ^ / ( _ : < [ } | 1 2 3 ",
"4 5 6 7 8 9 0 a b c d e f g h i j k l m n o p q r _ s t u v w x ",
"y z A B C D E F G H I J K L M N O P Q R S T U V W X Y Z `  ...+.",
"@.#.$.%.&.*.=.-.;.>.,.'.).!.~.{.! ].^./.(._.:.<.[.}.|.1.2.3.4.5.",
"6.7.8.9.0.a.b.c.d.e.f.g.h.i.j.k.l.m.n.o.p.q.r.s.t.u.v.w.x.y.z.A.",
"B.C.D.E.F.G.H.I.J.K.L.M.N.O.P.Q.R.S.T.U.V.R.W.X.Y.Z.`. +.+++@+#+",
"$+%+&+*+=+-+;+>+,+'+)+!+~+U {+]+^+/+(+_+m.:+<+[+}+|+1+2+3+4+5+9.",
"6+7+8+9+0+a+b+c+d+e+f+g+h+i+j+k+l+m+n+o+%+p+q+r+s+t+u+-+v+w+x+y+",
"z+A+B+C+D+E+F+G+H+I+J+K+L+M+N+O+P+Q+R+S+T+U+V+W+X+Y+Z+`+W+ @.@+@",
"@@#@$@%@&@*@=@-@;@>@,@'@)@!@~@{@]@^@/@(@_@:@<@[@}@|@1@2@3@4@5@6@",
"7@8@9@0@a@b@c@d@e@f@g@h@i@j@k@l@m@n@o@p@q@r@s@t@u@v@w@x@y@z@A@B@",
"C@D@E@F@G@H@I@J@K@L@M@N@O@P@Q@R@S@T@U@V@W@X@Y@Z@`@ #.#+#@###$#%#",
"&#*#=#-#;#>#,#'#)#!#~#{#]#^#/#(#_#:#<#[#}#|#1#2#3#4#5#6#7#8#9#0#",
"a#b#c#d#e#f#g#h#i#j#k#l#m#n#o#p#q#r#s#t#u#v#w#x#y#z#A#B#C#D#E#F#",
"G#H#I#J#K#L#M#N#O#P#Q#R#S#T#T#U#V#W#X#Y#Z#`# $.$+$@$#$$$%$&$*$=$",
"-$;$>$,$'$`#)$!$~${$]$^$/$($_$:$<$[$}$|$1$2$3$4$5$6$7$8$9$0$a$b$",
"c$d$e$f$g$h$i$j$k$l$m$n$o$p$q$r$s$t$u$v$w$x$y$z$A$7$B$C$D$E$F$G$",
"H$I$J$K$L$M$N$O$P$Q$R$S$T$U$V$W$X$Y$Z$`$ %.%+%@%#%$%%%&%*%=%-%;%",
">%,%'%)%!%~%{%]%^%/%(%_%:%<%[%}%|%1%2%3%4%5%6%7%8%9%0%a%b%c%d%e%",
"f%g%h%i%j%k%l%m%n%o%p%q%r%s%t%u%v%w%x%y%z%A%B%C%D%E%F%G%H%I%J%K%",
"L%M%N%O%P%Q%R%S%T%U%V%W%X%Y%Z%`% &.&+&@&#&$&%&&&*&=&-&;&>&,&'&)&",
"!&~&{&]&^&/&(&_&:&<&[&}&|&1&2&3&4&5&6&7&8&9&0&a&b&c&d&e&f&g&h&i&",
"j&k&l&m&n&o&p&q&r&s&t&u&v&w&x&y&q&6&z&A&B&C&D&E&F&G&H&I&J&K&L&M&",
"N&O&P&Q&R&S&T&U&V&W&X&Y&Z&`& *.*+*@*#*$*%*&***=*-*;*>*,*'*'*)*!*",
"~*{*]*^*/*(*_*:*<*[*}*|*1*2*3*%*4*5*6*7*8*9*0*a*b*c*d*e*f*e*g*d*",
"h*i*j*k*l*m*n*o*p*q*r*s*t*u*v*w*x*y*z*A*B*C*D*E*F*G*H*H*I*J*K*L*",
"M*N*O*P*Q*R*S*T*U*V*W*X*Y*Z*`* =.=+=@=#=$=%=&=*===-=;=>=,='=)=!=",
"~={=]=^=/=(=_=:=<=[=}=|=1=2=3=+=4=5=6=7=8=9=0=a=b=c=d=e=f=g=h=i=",
"j=k=l=m=n=o=p=q=r=s=t=u=v=w=x=y=z=A=B=C=D=E=F=G=b=H=I=I=J=K=L=M=",
"N=O=P=Q=R=S=T=U=V=W=X=Y=Z=`= -A=.-+-D=@-#-$-%-&-*-=-----;->-,->-",
"'-)-!-~-{-]-{-^-/-(-_-:-<-[-}-|-1-2-3-4-5-6-k=7-8-9-9-0-a-b-c-d-",
"e-f-g-h-i-j-k-l-m-n-o-p-q-r-s-t-u-v-s-w-x-y-z-A-B-C-D-E-F-G-H-I-"};
